Coordinates
version=1
nRows=23
nColumns=27
inDegrees=yes

Units are S.I. units (second, meters, Newtons, ...)
If the header above contains a line with 'inDegrees', this indicates whether rotational values are in degrees (yes) or radians (no).

endheader
time	pelvis_rotation	pelvis_tilt	pelvis_list	pelvis_tx	pelvis_ty	pelvis_tz	hip_flexion_r	hip_adduction_r	hip_rotation_r	knee_angle_r	knee_rotation_r	knee_adduction_r	knee_angle_r_beta	ankle_angle_r	subtalar_angle_r	mtp_angle_r	hip_flexion_l	hip_adduction_l	hip_rotation_l	knee_angle_l	knee_rotation_l	knee_adduction_l	knee_angle_l_beta	ankle_angle_l	subtalar_angle_l	mtp_angle_l
      5.38000000	      7.36430162	    -38.65462307	      4.45755276	     -0.05519152	      0.62873965	     -1.14576168	    106.56250715	    -39.61556599	      7.88384596	     80.83533122	      0.00000000	      0.00000000	      1.41084268	      5.25578667	      0.00000000	      0.00000000	    104.23963975	    -25.16308954	      7.84573941	     73.81633381	      0.00000000	      0.00000000	      1.28833807	      0.06306748	      0.00000000	      0.00000000
      5.38500000	      7.29670129	    -38.65162772	      4.44680521	     -0.05501850	      0.63088937	     -1.14592498	    106.17407747	    -39.54742436	      7.63735030	     80.44238049	      0.00000000	      0.00000000	      1.40398440	      5.16257392	      0.00000000	      0.00000000	    103.87743432	    -25.19832361	      7.64961113	     73.44403098	      0.00000000	      0.00000000	      1.28184016	     -0.02000421	      0.00000000	      0.00000000
      5.39000000	      7.37419071	    -38.62507454	      4.50048791	     -0.05476626	      0.63301850	     -1.14620248	    105.78050868	    -39.63566815	      7.38799708	     80.05012874	      0.00000000	      0.00000000	      1.39713831	      5.02689187	      0.00000000	      0.00000000	    103.48595168	    -25.08713215	      7.46300597	     73.06851927	      0.00000000	      0.00000000	      1.27528624	     -0.06169369	      0.00000000	      0.00000000
      5.39500000	      7.36780325	    -38.60153413	      4.50666220	     -0.05449735	      0.63508918	     -1.14642424	    105.37549082	    -39.64174447	      7.12824078	     79.66342924	      0.00000000	      0.00000000	      1.39038913	      4.91004125	      0.00000000	      0.00000000	    103.11530110	    -25.06474526	      7.28191757	     72.70987209	      0.00000000	      0.00000000	      1.26902667	     -0.11062874	      0.00000000	      0.00000000
      5.40000000	      7.32852076	    -38.58395522	      4.44027453	     -0.05420342	      0.63712079	     -1.14660887	    104.91638053	    -39.63153003	      6.79047289	     79.27936839	      0.00000000	      0.00000000	      1.38368601	      4.82519564	      0.00000000	      0.00000000	    102.79397673	    -25.06417666	      7.17042593	     72.36630756	      0.00000000	      0.00000000	      1.26303033	     -0.17396960	      0.00000000	      0.00000000
      5.40500000	      7.23991250	    -38.53968046	      4.43981615	     -0.05388406	      0.63913594	     -1.14680288	    104.50599583	    -39.53309141	      6.59655103	     78.89433541	      0.00000000	      0.00000000	      1.37696591	      4.72136132	      0.00000000	      0.00000000	    102.38756502	    -25.13687113	      6.94190177	     72.01625099	      0.00000000	      0.00000000	      1.25692069	     -0.26309025	      0.00000000	      0.00000000
      5.41000000	      7.28531979	    -38.51455691	      4.49683144	     -0.05351203	      0.64107486	     -1.14709286	    104.15397763	    -39.58831339	      6.39237666	     78.53713015	      0.00000000	      0.00000000	      1.37073151	      4.60112848	      0.00000000	      0.00000000	    102.01311935	    -25.07560532	      6.73268787	     71.68051762	      0.00000000	      0.00000000	      1.25106104	     -0.28222907	      0.00000000	      0.00000000
      5.41500000	      7.14827465	    -38.49314646	      4.42255822	     -0.05313488	      0.64296427	     -1.14724738	    103.73504015	    -39.46324241	      6.13680636	     78.17466751	      0.00000000	      0.00000000	      1.36440534	      4.51496072	      0.00000000	      0.00000000	    101.68226152	    -25.19012923	      6.57189843	     71.36608361	      0.00000000	      0.00000000	      1.24557313	     -0.35458247	      0.00000000	      0.00000000
      5.42000000	      7.28014883	    -38.43221680	      4.49765806	     -0.05273312	      0.64487156	     -1.14755922	    103.33160521	    -39.61011474	      5.90554908	     77.81514254	      0.00000000	      0.00000000	      1.35813045	      4.39825130	      0.00000000	      0.00000000	    101.28061432	    -25.02969758	      6.40599242	     71.01548881	      0.00000000	      0.00000000	      1.23945410	     -0.37859164	      0.00000000	      0.00000000
      5.42500000	      7.36513865	    -38.36632836	      4.57745681	     -0.05227374	      0.64673839	     -1.14786172	    102.94904767	    -39.70285962	      5.71744530	     77.46912546	      0.00000000	      0.00000000	      1.35209131	      4.30363325	      0.00000000	      0.00000000	    100.86973639	    -24.93246983	      6.19647196	     70.68178153	      0.00000000	      0.00000000	      1.23362981	     -0.41426342	      0.00000000	      0.00000000
      5.43000000	      7.37031360	    -38.30097664	      4.58337478	     -0.05180721	      0.64855294	     -1.14812049	    102.52792759	    -39.72439458	      5.48941054	     77.12447341	      0.00000000	      0.00000000	      1.34607599	      4.19255760	      0.00000000	      0.00000000	    100.49021619	    -24.90499758	      6.03073536	     70.37104741	      0.00000000	      0.00000000	      1.22820648	     -0.44607079	      0.00000000	      0.00000000
      5.43500000	      7.32465506	    -38.25238018	      4.55746139	     -0.05131958	      0.65036333	     -1.14833971	    102.09885189	    -39.68659254	      5.25060561	     76.77415703	      0.00000000	      0.00000000	      1.33996182	      4.11501082	      0.00000000	      0.00000000	    100.12982827	    -24.92806840	      5.87269128	     70.06217281	      0.00000000	      0.00000000	      1.22281560	     -0.50108451	      0.00000000	      0.00000000
      5.44000000	      7.31287175	    -38.20543388	      4.55862343	     -0.05080229	      0.65214633	     -1.14855532	    101.69919353	    -39.67836654	      5.03755539	     76.43831197	      0.00000000	      0.00000000	      1.33410022	      4.02440574	      0.00000000	      0.00000000	     99.76889854	    -24.92150902	      5.70973259	     69.75137639	      0.00000000	      0.00000000	      1.21739118	     -0.55678074	      0.00000000	      0.00000000
      5.44500000	      7.38316505	    -38.11139486	      4.64074579	     -0.05022240	      0.65390687	     -1.14887111	    101.30885674	    -39.76958124	      4.86804338	     76.10885267	      0.00000000	      0.00000000	      1.32835007	      3.88652729	      0.00000000	      0.00000000	     99.32922741	    -24.84239827	      5.48984621	     69.44220279	      0.00000000	      0.00000000	      1.21199508	     -0.54017909	      0.00000000	      0.00000000
      5.45000000	      7.30636914	    -38.06566761	      4.63560990	     -0.04966322	      0.65567096	     -1.14911499	    100.92211897	    -39.69454905	      4.69285470	     75.76405792	      0.00000000	      0.00000000	      1.32233227	      3.82375522	      0.00000000	      0.00000000	     98.94318472	    -24.89009338	      5.30014394	     69.12911017	      0.00000000	      0.00000000	      1.20653058	     -0.58678737	      0.00000000	      0.00000000
      5.45500000	      7.36456621	    -37.99051029	      4.63598888	     -0.04906210	      0.65740253	     -1.14939067	    100.46652616	    -39.77484831	      4.42648051	     75.43187422	      0.00000000	      0.00000000	      1.31653457	      3.72166667	      0.00000000	      0.00000000	     98.58758025	    -24.80447908	      5.19069953	     68.84183856	      0.00000000	      0.00000000	      1.20151675	     -0.61550057	      0.00000000	      0.00000000
      5.46000000	      7.35329018	    -37.93091571	      4.64756961	     -0.04843334	      0.65912564	     -1.14964495	    100.06046883	    -39.77227730	      4.22636705	     75.09943099	      0.00000000	      0.00000000	      1.31073234	      3.64359342	      0.00000000	      0.00000000	     98.20870201	    -24.79554581	      5.01907521	     68.54766559	      0.00000000	      0.00000000	      1.19638246	     -0.63222935	      0.00000000	      0.00000000
      5.46500000	      7.25745922	    -37.82402001	      4.60396998	     -0.04772613	      0.66085888	     -1.14987419	     99.58032031	    -39.69855910	      4.00917468	     74.76942571	      0.00000000	      0.00000000	      1.30497266	      3.55620431	      0.00000000	      0.00000000	     97.77801600	    -24.86130491	      4.84842984	     68.25852240	      0.00000000	      0.00000000	      1.19133596	     -0.66364026	      0.00000000	      0.00000000
      5.47000000	      7.27310374	    -37.80225374	      4.60079306	     -0.04710514	      0.66255401	     -1.15015021	     99.19921763	    -39.72726418	      3.77129390	     74.43712654	      0.00000000	      0.00000000	      1.29917294	      3.44333324	      0.00000000	      0.00000000	     97.46362247	    -24.80954587	      4.74021774	     67.97290251	      0.00000000	      0.00000000	      1.18635095	     -0.67153122	      0.00000000	      0.00000000
      5.47500000	      7.26346850	    -37.74008077	      4.61378207	     -0.04641412	      0.66429536	     -1.15041359	     98.77539567	    -39.71559242	      3.57835125	     74.09670520	      0.00000000	      0.00000000	      1.29323147	      3.39717897	      0.00000000	      0.00000000	     97.07066225	    -24.78408489	      4.58430280	     67.66811296	      0.00000000	      0.00000000	      1.18103137	     -0.69606592	      0.00000000	      0.00000000
      5.48000000	      7.26143845	    -37.67501665	      4.64657849	     -0.04570124	      0.66599743	     -1.15071273	     98.38130881	    -39.72421155	      3.39974416	     73.76667401	      0.00000000	      0.00000000	      1.28747134	      3.31208331	      0.00000000	      0.00000000	     96.67693136	    -24.75286596	      4.41052635	     67.38056246	      0.00000000	      0.00000000	      1.17601267	     -0.72317853	      0.00000000	      0.00000000
      5.48500000	      7.28155868	    -37.58606038	      4.69038395	     -0.04494797	      0.66770947	     -1.15103585	     97.96410857	    -39.76022108	      3.21928381	     73.44211745	      0.00000000	      0.00000000	      1.28180676	      3.22294578	      0.00000000	      0.00000000	     96.25456003	    -24.69409937	      4.24183719	     67.08945386	      0.00000000	      0.00000000	      1.17093186	     -0.71583224	      0.00000000	      0.00000000
      5.49000000	      7.28439350	    -37.53175247	      4.68801642	     -0.04420624	      0.66939193	     -1.15132258	     97.54236464	    -39.77786912	      2.98932367	     73.10911849	      0.00000000	      0.00000000	      1.27599483	      3.15200637	      0.00000000	      0.00000000	     95.88899591	    -24.64427116	      4.12911596	     66.79984658	      0.00000000	      0.00000000	      1.16587726	     -0.71703075	      0.00000000	      0.00000000
